<?xml version="1.0" standalone="no"?>
<!DOCTYPE svg PUBLIC "-//W3C//DTD SVG 20010904//EN"
 "http://www.w3.org/TR/2001/REC-SVG-20010904/DTD/svg10.dtd">
<svg version="1.0" xmlns="http://www.w3.org/2000/svg"
 width="401.000000pt" height="401.000000pt" viewBox="0 0 401.000000 401.000000"
 preserveAspectRatio="xMidYMid meet">
<metadata>
Created by potrace 1.11, written by Peter Selinger 2001-2013
</metadata>
<g transform="translate(0.000000,401.000000) scale(0.100000,-0.100000)"
fill="#000000" stroke="none">
<path d="M3409 3936 c-2 -3 -17 -7 -33 -10 -42 -7 -148 -63 -199 -105 -72 -58
-124 -150 -143 -253 -10 -57 -21 -182 -18 -208 2 -14 5 -46 8 -72 8 -72 30
-110 133 -220 93 -99 95 -102 90 -141 -4 -28 -17 -51 -44 -79 -34 -35 -63 -56
-186 -136 -21 -14 -36 -30 -34 -35 3 -11 50 -29 132 -52 28 -8 83 -24 124 -35
l73 -22 77 28 c102 37 210 89 241 117 81 73 75 193 -15 281 -50 50 -72 64
-165 104 -59 26 -123 92 -157 161 -33 68 -41 185 -18 273 45 178 189 250 303
152 105 -90 132 -281 60 -424 -16 -31 -16 -36 -3 -50 14 -13 19 -11 47 20 116
132 142 179 142 255 0 47 -8 75 -33 129 -63 134 -171 268 -244 304 -36 17
-127 29 -138 18z"/>
<path d="M2735 3651 c-112 -52 -173 -140 -196 -281 -23 -142 -10 -181 98 -285
82 -79 85 -84 79 -116 -5 -24 -20 -44 -53 -69 -64 -49 -168 -159 -168 -178 0
-16 57 -35 133 -46 57 -7 163 68 203 146 32 63 49 121 56 188 5 60 4 68 -21
97 -14 17 -43 38 -65 46 -50 20 -87 65 -106 129 -20 67 -19 118 2 148 24 36
81 88 105 96 28 9 62 -27 82 -88 21 -66 20 -96 -4 -135 -19 -32 -19 -32 2 -39
24 -7 45 14 78 83 23 46 21 102 -5 180 -52 152 -102 180 -220 124z m199 -211
l6 -45 -15 45 c-8 25 -15 52 -15 60 1 30 17 -13 24 -60z"/>
<path d="M1738 2646 c-1 -2 -52 -6 -113 -10 -60 -4 -123 -8 -140 -10 -16 -2
-59 -7 -95 -10 -36 -4 -76 -8 -90 -11 -14 -2 -41 -6 -60 -9 -88 -13 -121 -19
-214 -37 -172 -34 -448 -110 -471 -130 -5 -5 -15 -9 -23 -9 -25 0 -221 -98
-293 -146 -199 -134 -275 -296 -218 -464 16 -45 58 -107 103 -150 30 -30 38
-48 56 -130 28 -131 63 -236 118 -360 59 -134 168 -314 229 -378 7 -7 13 -17
13 -22 0 -5 57 -67 128 -137 196 -197 403 -336 646 -433 69 -27 221 -74 277
-85 172 -35 277 -44 459 -40 91 2 174 6 185 8 11 3 42 8 69 11 515 70 1035
422 1313 891 83 141 177 367 198 476 4 20 11 50 21 92 1 4 2 19 3 33 0 14 14
39 30 54 97 98 135 175 135 280 1 102 -30 168 -121 259 -81 80 -152 128 -288
191 -219 102 -499 179 -820 225 -60 8 -124 17 -140 20 -17 2 -67 7 -110 10
-44 4 -96 9 -115 11 -39 5 -666 14 -672 10z"/>
</g>
</svg>
